<svg width="416" height="437" viewBox="0 0 416 437" fill="none" xmlns="http://www.w3.org/2000/svg">
<path d="M14.7 322V314.65C27.3 314.65 34.65 312.317 36.75 307.65V131.6C34.65 126.933 27.3 124.6 14.7 124.6V117.25H91V124.6C78.4 124.6 71.05 126.933 68.95 131.6V209.65H158.55V131.6C156.45 126.933 149.1 124.6 136.5 124.6V117.25H212.8V124.6C200.2 124.6 192.85 126.933 190.75 131.6V307.65C192.85 312.317 200.2 314.65 212.8 314.65V322H136.5V314.65C149.1 314.65 156.45 312.317 158.55 307.65V221.55H68.95V307.65C71.05 312.317 78.4 314.65 91 314.65V322H14.7Z" fill="white"/>
<path d="M227 136C227 134.9 228.45 132.8 231.35 129.7C234.35 126.5 237.95 122.8 242.15 118.6C246.35 114.4 250.5 109.9 254.6 105.1C258.8 100.3 262.35 95.1 265.25 89.5C268.25 83.9 269.75 78.7 269.75 73.9C269.75 69.3 268.45 65.15 265.85 61.45C263.35 57.65 259.7 55.75 254.9 55.75C250.8 55.75 247.2 56.25 244.1 57.25C241 58.25 238.65 59.45 237.05 60.85C235.55 62.25 234.3 63.65 233.3 65.05C232.3 66.45 231.5 67.65 230.9 68.65C230.4 69.65 230 70.15 229.7 70.15C228.9 70.15 228.5 69.65 228.5 68.65C228.5 67.55 229 65.9 230 63.7C231 61.5 232.5 59.1 234.5 56.5C236.5 53.8 239.45 51.5 243.35 49.6C247.25 47.7 251.65 46.75 256.55 46.75C265.85 46.75 272.8 49.2 277.4 54.1C282.1 58.9 284.45 64.85 284.45 71.95C284.45 76.05 282.4 81.15 278.3 87.25C274.2 93.25 269.65 98.75 264.65 103.75C259.75 108.75 255.25 113.4 251.15 117.7C247.05 122 245 124.6 245 125.5H276.65C280.75 123.7 283.7 120.55 285.5 116.05H288.5L282.8 136H227Z" fill="white"/>
<path d="M259 209C259 206.791 257.209 205 255 205V205C252.791 205 251 206.791 251 209V322H259V209Z" fill="#9F8200"/>
<path d="M274 195C274 192.791 272.209 191 270 191V191C267.791 191 266 192.791 266 195V322H274V195Z" fill="#9F8200"/>
<path d="M289 179C289 176.791 287.209 175 285 175V175C282.791 175 281 176.791 281 179V322H289V179Z" fill="#9F8200"/>
<path d="M305.282 153.641C305.282 151.078 303.204 149 300.641 149V149C298.078 149 296 151.078 296 153.641V322H305.282V153.641Z" fill="#9F8200"/>
<path d="M321.282 136.641C321.282 134.078 319.204 132 316.641 132V132C314.078 132 312 134.078 312 136.641V322H321.282V136.641Z" fill="#9F8200"/>
<path d="M337.282 115.641C337.282 113.078 335.204 111 332.641 111V111C330.078 111 328 113.078 328 115.641V322H337.282V115.641Z" fill="#9F8200"/>
<path d="M353.282 94.6412C353.282 92.078 351.204 90 348.641 90V90C346.078 90 344 92.0779 344 94.6412V322H353.282V94.6412Z" fill="#9F8200"/>
<path d="M12.898 396V394.551C15.382 394.551 16.831 394.091 17.245 393.171V358.464C16.831 357.544 15.382 357.084 12.898 357.084V355.635H27.94V357.084C25.456 357.084 24.007 357.544 23.593 358.464V373.851H41.257V358.464C40.843 357.544 39.394 357.084 36.91 357.084V355.635H51.952V357.084C49.468 357.084 48.019 357.544 47.605 358.464V393.171C48.019 394.091 49.468 394.551 51.952 394.551V396H36.91V394.551C39.394 394.551 40.843 394.091 41.257 393.171V376.197H23.593V393.171C24.007 394.091 25.456 394.551 27.94 394.551V396H12.898ZM57.775 396V394.551C60.259 394.551 61.708 394.091 62.122 393.171V358.464C61.708 357.544 60.259 357.084 57.775 357.084V355.635H72.817V357.084C70.333 357.084 68.884 357.544 68.47 358.464V393.171C68.884 394.091 70.333 394.551 72.817 394.551V396H57.775ZM92.8792 396.69C90.6252 396.69 88.3252 396.345 85.9792 395.655C83.6332 394.965 82.4142 394.62 82.3222 394.62C82.0462 394.62 81.7242 394.758 81.3562 395.034C80.9882 395.31 80.8042 395.632 80.8042 396H79.2172V386.409H80.7352C81.2412 389.169 82.5982 391.193 84.8062 392.481C87.0602 393.723 89.6132 394.344 92.4652 394.344C94.9032 394.344 96.9042 393.792 98.4682 392.688C100.032 391.584 100.814 389.928 100.814 387.72C100.814 386.708 100.584 385.788 100.124 384.96C99.7102 384.132 99.0432 383.373 98.1232 382.683C97.2492 381.947 96.3982 381.349 95.5702 380.889C94.7422 380.383 93.6612 379.785 92.3272 379.095C91.0392 378.359 90.0502 377.784 89.3602 377.37C87.7502 376.358 86.5542 375.599 85.7722 375.093C84.9902 374.541 83.9782 373.736 82.7362 372.678C81.5402 371.62 80.6662 370.516 80.1142 369.366C79.5622 368.216 79.2862 366.974 79.2862 365.64C79.2862 362.926 80.5282 360.465 83.0122 358.257C85.4962 356.049 88.2792 354.945 91.3612 354.945C92.6952 354.945 94.3512 355.29 96.3292 355.98C98.3072 356.67 99.4342 357.015 99.7102 357.015C100.262 357.015 100.538 356.555 100.538 355.635H102.125L102.815 364.398H101.297C101.021 362.374 100.009 360.695 98.2612 359.361C96.5132 357.981 94.2362 357.291 91.4302 357.291C89.3142 357.291 87.6122 357.981 86.3242 359.361C85.0822 360.695 84.4612 362.052 84.4612 363.432C84.4612 364.306 84.6682 365.134 85.0822 365.916C85.4962 366.652 86.1402 367.342 87.0142 367.986C87.8882 368.63 88.7162 369.205 89.4982 369.711C90.2802 370.171 91.3152 370.746 92.6032 371.436C93.9372 372.126 94.9492 372.678 95.6392 373.092C97.5252 374.242 98.8822 375.093 99.7102 375.645C100.538 376.197 101.596 377.048 102.884 378.198C104.218 379.348 105.138 380.544 105.644 381.786C106.196 382.982 106.472 384.316 106.472 385.788C106.472 389.192 105.092 391.86 102.332 393.792C99.5722 395.724 96.4212 396.69 92.8792 396.69ZM131.832 396V394.551C133.948 394.551 135.282 394.275 135.834 393.723L131.97 383.166H118.722L115.134 393.309C115.594 394.137 117.02 394.551 119.412 394.551V396H108.096V394.551C110.672 394.551 112.121 394.068 112.443 393.102L125.829 355.635H129.141L142.527 393.102C142.849 394.068 144.321 394.551 146.943 394.551V396H131.832ZM125.277 364.812L119.55 380.889H131.142L125.277 364.812ZM169.499 396V394.551C171.615 394.551 172.949 394.275 173.501 393.723L169.637 383.166H156.389L152.801 393.309C153.261 394.137 154.687 394.551 157.079 394.551V396H145.763V394.551C148.339 394.551 149.788 394.068 150.11 393.102L163.496 355.635H166.808L180.194 393.102C180.516 394.068 181.988 394.551 184.61 394.551V396H169.499ZM162.944 364.812L157.217 380.889H168.809L162.944 364.812ZM197.575 375.99V393.654H203.44C209.88 393.654 213.1 390.526 213.1 384.27C213.1 382.108 212.295 380.199 210.685 378.543C209.075 376.841 206.384 375.99 202.612 375.99H197.575ZM197.575 357.981V373.989H200.404C206.844 373.989 210.064 371.068 210.064 365.226C210.064 360.396 206.568 357.981 199.576 357.981H197.575ZM186.88 396V394.551C189.364 394.551 190.813 394.091 191.227 393.171V358.464C190.813 357.544 189.364 357.084 186.88 357.084V355.635H199.576C205.326 355.635 209.65 356.578 212.548 358.464C215.492 360.35 216.964 362.581 216.964 365.157C216.964 369.849 214.526 373.023 209.65 374.679C213.1 375.461 215.676 376.749 217.378 378.543C219.126 380.291 220 382.177 220 384.201C220 387.697 218.597 390.549 215.791 392.757C213.031 394.919 208.914 396 203.44 396H186.88ZM241.932 396V394.551C244.416 394.551 245.865 394.091 246.279 393.171V358.464C245.865 357.544 244.416 357.084 241.932 357.084V355.635H256.974V357.084C254.49 357.084 253.041 357.544 252.627 358.464V373.851H270.291V358.464C269.877 357.544 268.428 357.084 265.944 357.084V355.635H280.986V357.084C278.502 357.084 277.053 357.544 276.639 358.464V393.171C277.053 394.091 278.502 394.551 280.986 394.551V396H265.944V394.551C268.428 394.551 269.877 394.091 270.291 393.171V376.197H252.627V393.171C253.041 394.091 254.49 394.551 256.974 394.551V396H241.932ZM307.233 394.344C310.315 394.344 312.891 393.056 314.961 390.48C317.077 387.904 318.135 384.5 318.135 380.268V358.464C317.721 357.544 316.272 357.084 313.788 357.084V355.635H324.828V357.084C322.344 357.084 320.895 357.544 320.481 358.464V378.888C320.481 384.868 319.147 389.33 316.479 392.274C313.857 395.218 310.545 396.69 306.543 396.69C295.503 396.69 289.983 390.756 289.983 378.888V358.464C289.569 357.544 288.12 357.084 285.636 357.084V355.635H300.678V357.084C298.194 357.084 296.745 357.544 296.331 358.464V379.854C296.331 384.408 297.343 387.973 299.367 390.549C301.391 393.079 304.013 394.344 307.233 394.344ZM340.157 375.99V393.654H346.022C352.462 393.654 355.682 390.526 355.682 384.27C355.682 382.108 354.877 380.199 353.267 378.543C351.657 376.841 348.966 375.99 345.194 375.99H340.157ZM340.157 357.981V373.989H342.986C349.426 373.989 352.646 371.068 352.646 365.226C352.646 360.396 349.15 357.981 342.158 357.981H340.157ZM329.462 396V394.551C331.946 394.551 333.395 394.091 333.809 393.171V358.464C333.395 357.544 331.946 357.084 329.462 357.084V355.635H342.158C347.908 355.635 352.232 356.578 355.13 358.464C358.074 360.35 359.546 362.581 359.546 365.157C359.546 369.849 357.108 373.023 352.232 374.679C355.682 375.461 358.258 376.749 359.96 378.543C361.708 380.291 362.582 382.177 362.582 384.201C362.582 387.697 361.179 390.549 358.373 392.757C355.613 394.919 351.496 396 346.022 396H329.462Z" fill="white"/>
<path d="M53.9531 432H52.5611L57.8523 417.455H59.2727L64.5639 432H63.1719L58.6122 419.18H58.5128L53.9531 432ZM54.9545 426.425H62.1705V427.618H54.9545V426.425ZM82.1653 422H80.83C80.7306 421.503 80.5507 421.044 80.2903 420.622C80.0346 420.196 79.7126 419.824 79.3244 419.507C78.9361 419.19 78.4958 418.944 78.0033 418.768C77.5109 418.593 76.9782 418.506 76.4053 418.506C75.4868 418.506 74.6487 418.745 73.8911 419.223C73.1383 419.701 72.5346 420.404 72.08 421.332C71.6302 422.256 71.4053 423.387 71.4053 424.727C71.4053 426.077 71.6302 427.213 72.08 428.136C72.5346 429.06 73.1383 429.76 73.8911 430.239C74.6487 430.712 75.4868 430.949 76.4053 430.949C76.9782 430.949 77.5109 430.861 78.0033 430.686C78.4958 430.511 78.9361 430.267 79.3244 429.955C79.7126 429.637 80.0346 429.266 80.2903 428.839C80.5507 428.413 80.7306 427.952 80.83 427.455H82.1653C82.0469 428.122 81.8244 428.745 81.4977 429.322C81.1757 429.895 80.7638 430.397 80.2619 430.828C79.7647 431.259 79.1918 431.595 78.5431 431.837C77.8944 432.078 77.1818 432.199 76.4053 432.199C75.1837 432.199 74.0995 431.893 73.1525 431.283C72.2055 430.667 71.4621 429.801 70.9224 428.683C70.3873 427.566 70.1198 426.247 70.1198 424.727C70.1198 423.207 70.3873 421.889 70.9224 420.771C71.4621 419.654 72.2055 418.79 73.1525 418.179C74.0995 417.563 75.1837 417.256 76.4053 417.256C77.1818 417.256 77.8944 417.376 78.5431 417.618C79.1918 417.855 79.7647 418.191 80.2619 418.626C80.7638 419.057 81.1757 419.559 81.4977 420.132C81.8244 420.705 82.0469 421.328 82.1653 422ZM101.077 422H99.7418C99.6423 421.503 99.4624 421.044 99.202 420.622C98.9463 420.196 98.6243 419.824 98.2361 419.507C97.8478 419.19 97.4075 418.944 96.9151 418.768C96.4226 418.593 95.89 418.506 95.317 418.506C94.3985 418.506 93.5604 418.745 92.8028 419.223C92.05 419.701 91.4463 420.404 90.9918 421.332C90.542 422.256 90.317 423.387 90.317 424.727C90.317 426.077 90.542 427.213 90.9918 428.136C91.4463 429.06 92.05 429.76 92.8028 430.239C93.5604 430.712 94.3985 430.949 95.317 430.949C95.89 430.949 96.4226 430.861 96.9151 430.686C97.4075 430.511 97.8478 430.267 98.2361 429.955C98.6243 429.637 98.9463 429.266 99.202 428.839C99.4624 428.413 99.6423 427.952 99.7418 427.455H101.077C100.959 428.122 100.736 428.745 100.409 429.322C100.087 429.895 99.6755 430.397 99.1736 430.828C98.6764 431.259 98.1035 431.595 97.4548 431.837C96.8062 432.078 96.0936 432.199 95.317 432.199C94.0955 432.199 93.0112 431.893 92.0642 431.283C91.1172 430.667 90.3739 429.801 89.8341 428.683C89.2991 427.566 89.0315 426.247 89.0315 424.727C89.0315 423.207 89.2991 421.889 89.8341 420.771C90.3739 419.654 91.1172 418.79 92.0642 418.179C93.0112 417.563 94.0955 417.256 95.317 417.256C96.0936 417.256 96.8062 417.376 97.4548 417.618C98.1035 417.855 98.6764 418.191 99.1736 418.626C99.6755 419.057 100.087 419.559 100.409 420.132C100.736 420.705 100.959 421.328 101.077 422ZM120.521 424.727C120.521 426.242 120.251 427.561 119.712 428.683C119.172 429.801 118.429 430.667 117.482 431.283C116.539 431.893 115.455 432.199 114.229 432.199C113.002 432.199 111.916 431.893 110.969 431.283C110.027 430.667 109.286 429.801 108.746 428.683C108.211 427.561 107.943 426.242 107.943 424.727C107.943 423.212 108.211 421.896 108.746 420.778C109.286 419.656 110.029 418.79 110.976 418.179C111.923 417.563 113.007 417.256 114.229 417.256C115.455 417.256 116.539 417.563 117.482 418.179C118.429 418.79 119.172 419.656 119.712 420.778C120.251 421.896 120.521 423.212 120.521 424.727ZM119.229 424.727C119.229 423.425 119.011 422.31 118.575 421.382C118.14 420.449 117.546 419.737 116.793 419.244C116.04 418.752 115.185 418.506 114.229 418.506C113.277 418.506 112.425 418.752 111.672 419.244C110.919 419.737 110.323 420.447 109.882 421.375C109.447 422.303 109.229 423.42 109.229 424.727C109.229 426.029 109.447 427.144 109.882 428.072C110.318 429 110.912 429.713 111.665 430.21C112.418 430.703 113.272 430.949 114.229 430.949C115.185 430.949 116.04 430.703 116.793 430.21C117.55 429.718 118.147 429.008 118.582 428.08C119.018 427.147 119.233 426.029 119.229 424.727ZM137.828 417.455H139.156V427.085C139.156 428.075 138.924 428.96 138.46 429.741C137.996 430.518 137.35 431.131 136.521 431.581C135.697 432.026 134.738 432.249 133.645 432.249C132.556 432.249 131.597 432.024 130.768 431.574C129.94 431.124 129.293 430.511 128.829 429.734C128.365 428.958 128.133 428.075 128.133 427.085V417.455H129.462V426.993C129.462 427.765 129.634 428.454 129.98 429.06C130.326 429.661 130.811 430.134 131.436 430.48C132.066 430.826 132.802 430.999 133.645 430.999C134.488 430.999 135.224 430.826 135.854 430.48C136.483 430.134 136.969 429.661 137.31 429.06C137.655 428.454 137.828 427.765 137.828 426.993V417.455ZM158.744 417.455V432H157.452L148.858 419.82H148.744V432H147.416V417.455H148.702L157.324 429.649H157.438V417.455H158.744ZM166.131 418.648V417.455H176.678V418.648H172.068V432H170.74V418.648H166.131ZM182.39 432H180.998L186.289 417.455H187.709L193.001 432H191.609L187.049 419.18H186.95L182.39 432ZM183.391 426.425H190.607V427.618H183.391V426.425ZM211.222 417.455V432H209.929L201.335 419.82H201.222V432H199.894V417.455H201.179L209.801 429.649H209.915V417.455H211.222ZM230.881 422H229.546C229.446 421.503 229.266 421.044 229.006 420.622C228.75 420.196 228.428 419.824 228.04 419.507C227.652 419.19 227.211 418.944 226.719 418.768C226.227 418.593 225.694 418.506 225.121 418.506C224.202 418.506 223.364 418.745 222.607 419.223C221.854 419.701 221.25 420.404 220.796 421.332C220.346 422.256 220.121 423.387 220.121 424.727C220.121 426.077 220.346 427.213 220.796 428.136C221.25 429.06 221.854 429.76 222.607 430.239C223.364 430.712 224.202 430.949 225.121 430.949C225.694 430.949 226.227 430.861 226.719 430.686C227.211 430.511 227.652 430.267 228.04 429.955C228.428 429.637 228.75 429.266 229.006 428.839C229.266 428.413 229.446 427.952 229.546 427.455H230.881C230.763 428.122 230.54 428.745 230.213 429.322C229.891 429.895 229.479 430.397 228.977 430.828C228.48 431.259 227.907 431.595 227.259 431.837C226.61 432.078 225.897 432.199 225.121 432.199C223.899 432.199 222.815 431.893 221.868 431.283C220.921 430.667 220.178 429.801 219.638 428.683C219.103 427.566 218.835 426.247 218.835 424.727C218.835 423.207 219.103 421.889 219.638 420.771C220.178 419.654 220.921 418.79 221.868 418.179C222.815 417.563 223.899 417.256 225.121 417.256C225.897 417.256 226.61 417.376 227.259 417.618C227.907 417.855 228.48 418.191 228.977 418.626C229.479 419.057 229.891 419.559 230.213 420.132C230.54 420.705 230.763 421.328 230.881 422ZM237.037 417.455H238.571L242.882 424.358H243.01L247.321 417.455H248.855L243.607 425.7V432H242.286V425.7L237.037 417.455ZM265.775 432V417.455H274.191V418.648H267.103V424.124H273.53V425.317H267.103V432H265.775ZM283.222 417.455V432H281.894V417.455H283.222ZM291.489 432V417.455H296.183C297.216 417.455 298.077 417.642 298.769 418.016C299.465 418.385 299.988 418.899 300.338 419.557C300.693 420.21 300.871 420.961 300.871 421.808C300.871 422.656 300.693 423.404 300.338 424.053C299.988 424.701 299.467 425.208 298.776 425.572C298.084 425.937 297.227 426.119 296.205 426.119H292.206V424.905H296.169C296.927 424.905 297.557 424.779 298.058 424.528C298.565 424.277 298.942 423.92 299.188 423.456C299.439 422.992 299.564 422.443 299.564 421.808C299.564 421.174 299.439 420.62 299.188 420.146C298.937 419.668 298.558 419.299 298.051 419.038C297.549 418.778 296.915 418.648 296.148 418.648H292.817V432H291.489ZM297.902 425.438L301.482 432H299.948L296.404 425.438H297.902ZM308.506 417.455H310.04L315.317 430.125H315.445L320.722 417.455H322.256V432H321.006V420.26H320.892L315.985 432H314.777L309.87 420.26H309.756V432H308.506V417.455Z" fill="#9F8200"/>
</svg>
